<?xml version="1.0" encoding="UTF-8"?>
<svg id="Layer_1" xmlns="http://www.w3.org/2000/svg" version="1.1" viewBox="0 0 423.09 134.58">
  <!-- Generator: Adobe Illustrator 29.1.0, SVG Export Plug-In . SVG Version: 2.1.0 Build 142)  -->
  <defs>
    <style>
      .st0 {
        fill: #e6632d;
      }
    </style>
  </defs>
  <g>
    <path class="st0" d="M135.73,50.35h-.73c-1.35.06-2.69,0-4.02,0h-4.56v.55c2.79.57,4.14,2.58,4.14,7v9.9c-6.15-7.18-10.3-12.74-13.64-17.42-.26,0-9.02-.04-9.37-.04h-.65v.52c2.57.53,3.31,1.84,3.53,5.16.13,2.93.17,5.73.17,8.88,0,2.98-.04,5.56-.17,8.31-.22,3.76-.91,5.51-3.53,5.99v.52c.22,0,.43,0,.65-.01h0c1.37-.05,2.71-.07,4.05-.08,1.34,0,2.67.03,4.02.09h.65v-.52c-2.79-.52-4.14-2.58-4.14-7.04v-15.4c8.74,10.36,13.49,16.54,18.48,23.14h1.6c-.17-6.96-.13-10.06-.13-14.75,0-2.98.04-5.56.17-8.31.22-3.63.96-5.47,3.48-5.95v-.55h0Z"/>
    <path class="st0" d="M214.1,56.6c1.64-3.27,2.99-5.34,5.07-5.83v-.42h-.9c-1.34,0-2.24-.02-3.41,0-1.17,0-1.64,0-3.08,0h-1.26v.42c3.43.66,3.63,2.6,2.08,5.7l-4.14,8.32c-1.59-3.16-3.22-6.62-4.54-9.74-1-2.34-.04-3.93,1.88-4.28v-.42h-.7c-1.56-.05-3.64,0-5.74,0s-3.77,0-5.59,0h-.86v.42c1.64.84,2,1.68,3.51,4.68,1.96,3.93,4.03,8.21,5.87,12.32-.04,2.21-.08,4.28-.2,6.49-.16,3.27-.8,4.64-3.11,5.12v.53c.19,0,.4-.02.59-.02v.02c1.78-.08,3.97-.13,6.17-.13s4.4.05,6.17.13v-.02c.2,0,.41.01.59.02v-.53c-2.28-.49-2.91-1.81-3.07-5.12-.16-2.69-.2-5.17-.16-7.95l4.83-9.71Z"/>
    <path class="st0" d="M272.13,50.36h0c-3.74.04-7.45.04-11.19.04h-1.73c-1.7,0-3.4,0-5.09,0-1.83,0-3.67,0-5.53-.05h-.61c-.12,2.77-.41,7.57-.74,10.82l.49.09c.04-.09.09-.16.13-.25,0,.05,0,.11-.02.16l.49.09c3.25-6.16,5.27-9.94,7.86-9.94h.38c.08,2.95.21,7.21.21,13.28,0,3.48-.04,6.51-.21,9.68-.16,3.26-.99,4.57-3.62,5.1v.53c.19,0,.41-.01.61-.02v.02c1.93-.08,4.33-.13,6.76-.13s4.83.05,6.79.13v-.02c.2,0,.42.01.61.02v-.53c-2.63-.53-3.41-1.8-3.58-5.1-.16-3.17-.21-6.2-.21-9.68,0-5.72.04-9.85.16-13.28h.34c2.59,0,4.69,3.87,7.94,9.94l.49-.09s-.01-.11-.02-.16c.04.08.09.16.13.25l.49-.09c-.37-3.26-.62-8.05-.74-10.82h-.61.02Z"/>
    <path class="st0" d="M304.79,77.46l.55-.89c-1.28,1.22-1.98,1.02-2.73.96-1.62-.2-1.87-1.76-2.48-4.47-.7-3.34-1.66-6.63-8.1-7.71v-.13c6.19-1.04,8.89-3.64,8.89-7.5,0-4.9-4.22-7.49-11.41-7.41h-.65l-6.88.09c-.6,0-1.2,0-1.79,0-1.91,0-3.77-.04-5.36-.1v.02c-.21,0-.44,0-.65-.02v.52c2.53.48,3.22,1.78,3.4,5.03.17,2.95.22,5.72.22,8.88s-.04,6.11-.22,9.14c-.17,3.21-.87,4.55-3.4,5.03v.52c.2,0,.43-.02.65-.02v.02c1.94-.08,4.33-.13,6.73-.13s4.8.05,6.73.13v-.02c.21,0,.44.01.65.02v-.52c-2.48-.52-3.22-1.78-3.35-5.03-.13-2.73-.17-5.79-.17-8.18l1.71.03c3.7.09,4.01,3.68,4.75,7.36.61,3.08,1.31,6.8,6.84,6.8.13,0,.25,0,.37-.01.09,0,.18.01.27.01,4.22,0,7-.15,7.31-.84l-1.27-1.68c-.09-.06-.43.18-.59.08h-.02ZM285.41,64.53c0-2.56.09-5.94.26-9.79.13-2.82.96-3.55,2.74-3.55h.05c2.83,0,4.57,2.25,4.57,6.76s-1.53,6.93-4.57,6.93h-3.06v-.35h.01Z"/>
    <path class="st0" d="M327.9,74.63l-6.1-14.08c-1.53-3.51-2.83-6.67-4.14-10.09h-1.69l-9.45,23.22c-1.18,2.9-2.18,4.59-4.57,5.72v.52c.23,0,.43-.01.65-.02v.02c1.48-.04,2.65-.06,3.8-.06s2.35.02,3.87.06v-.02c.21,0,.42,0,.65.02v-.52c-3.01-.61-3.79-2.64-2.66-5.55l1.52-3.86h8.37c.61,1.6,1.18,3.25,1.79,5.11.83,2.69-.17,3.86-2.31,4.29v.52c.21,0,.43-.01.65-.02v.02c1.81-.06,3.97-.09,6.14-.1,2.17,0,4.32.03,6.11.1v-.02c.21,0,.44.01.65.02v-.52c-1.48-.78-1.83-1.39-3.27-4.77h0ZM310.13,69.08l3.68-9.22c1.64,3.67,2.88,6.48,3.95,9.22h-7.63Z"/>
    <path class="st0" d="M243.36,74.61l-6.1-14.13c-1.53-3.52-2.83-6.7-4.14-10.13h-1.69l-9.45,23.31c-1.18,2.91-2.18,4.61-4.57,5.74v.52c.23,0,.43-.01.65-.02v.02c1.48-.04,2.65-.06,3.8-.06s2.35.02,3.87.06v-.02c.21,0,.42,0,.65.02v-.52c-3.01-.61-3.79-2.65-2.66-5.57l1.52-3.87h8.37c.61,1.61,1.18,3.26,1.79,5.13.83,2.7-.17,3.87-2.31,4.3v.52c.21,0,.43-.01.65-.02v.02c1.81-.06,3.97-.09,6.14-.1,2.17,0,4.32.03,6.11.1v-.02c.21,0,.44.01.65.02v-.52c-1.48-.78-1.83-1.39-3.27-4.78h0ZM225.58,69.04l3.68-9.26c1.64,3.69,2.88,6.5,3.95,9.26h-7.63,0Z"/>
    <path class="st0" d="M160.2,74.63l-6.1-14.08c-1.53-3.51-2.83-6.67-4.14-10.09h-1.69l-9.45,23.22c-1.18,2.9-2.18,4.59-4.57,5.72v.52c.23,0,.43-.01.65-.02v.02c1.48-.04,2.65-.06,3.8-.06s2.35.02,3.87.06v-.02c.21,0,.42,0,.65.02v-.52c-3.01-.61-3.79-2.64-2.66-5.55l1.52-3.86h8.37c.61,1.6,1.18,3.25,1.79,5.11.83,2.69-.17,3.86-2.31,4.29v.52c.21,0,.43-.01.65-.02v.02c1.81-.06,3.97-.09,6.14-.1,2.17,0,4.32.03,6.11.1v-.02c.21,0,.44.01.65.02v-.52c-1.48-.78-1.83-1.39-3.27-4.77h0ZM142.42,69.08l3.68-9.22c1.64,3.67,2.88,6.48,3.95,9.22h-7.63,0Z"/>
    <path class="st0" d="M189.42,74.61l-6.1-14.13c-1.53-3.52-2.83-6.69-4.14-10.13h-1.69l-9.45,23.3c-1.18,2.91-2.18,4.61-4.57,5.74v.52c.23,0,.43-.01.65-.02v.02c1.48-.04,2.65-.06,3.8-.06s2.35.02,3.87.06v-.02c.21,0,.42,0,.65.02v-.52c-3.01-.61-3.79-2.65-2.66-5.56l1.52-3.87h8.37c.61,1.61,1.18,3.26,1.79,5.13.83,2.7-.17,3.87-2.31,4.3v.52c.21,0,.43-.01.65-.02v.02c1.81-.06,3.97-.09,6.14-.1,2.17,0,4.32.03,6.11.1v-.02c.21,0,.44.01.65.02v-.52c-1.48-.78-1.83-1.39-3.27-4.78h0ZM171.65,69.04l3.68-9.26c1.64,3.69,2.88,6.5,3.95,9.26h-7.63,0Z"/>
    <path class="st0" d="M346.96,50.32h-.6l-5.69.09c-.56,0-1.12,0-1.69.02-1.77,0-3.5-.04-4.94-.1v.02c-.2,0-.41,0-.6-.02v.53c2.34.48,2.98,1.81,3.15,5.11.16,2.99.2,5.81.2,9.03s-.04,6.21-.2,9.29c-.16,3.26-.81,4.62-3.15,5.11v.53c.19,0,.4-.01.6-.02v.02c1.77-.06,3.81-.1,5.83-.1.63,0,1.26,0,1.88.02l4.6.09h.6c9.72.18,14.96-6.51,14.96-15.05,0-8.98-5.73-14.66-14.96-14.53v-.04ZM344.01,75.2c-.12-3.57-.16-7.75-.16-10.43s.04-6.3.24-10.3c.12-2.47.89-3.26,2.5-3.26h.21c5.12,0,7.46,6.16,7.46,13.25,0,8.32-2.34,14.57-7.42,14.57h0c-2.18,0-2.74-1.06-2.82-3.83h0Z"/>
    <path class="st0" d="M387.08,68.82l-.1.27c-3,6.82-4.35,9.89-7.64,9.89h-.62c-2.18,0-3.02-1.06-3.1-4.14-.11-3.39-.15-7.27-.15-9.92h1.46c3.06,0,4.29,3.13,4.9,6.04h1.03c-.11-3.61-.11-9.3,0-12.96h-1.03c-.73,3.17-1.8,6-4.86,6h-1.5c0-2.47.04-5.69.23-9.26.11-2.82.96-3.57,2.64-3.57h.81c3.1,0,4.52,2.78,7.69,8.86h.99v-.04h0c-.38-3.22-.69-6.79-.84-9.7h-.57l-13.95.09c-2.21,0-4.5,0-6.3-.09v.02c-.19,0-.38,0-.57-.02v.53c2.22.49,2.83,1.81,2.98,5.11.15,3,.19,5.82.19,9.04s-.04,6.22-.19,9.3c-.15,3.26-.76,4.63-2.98,5.11v.53c.18,0,.38-.01.57-.02v.02c2.07-.08,4.46-.09,6.76-.09l13.87.09h.57c.08-3.3.31-7.45.69-10.97l-.97-.11h-.01Z"/>
  </g>
  <path class="st0" d="M98.1,76.13c-.87-1.49.05-5.74-.45-9.95-13.49-22.4-34-23.3-34-23.3l5.2,5.07-10.89.25c5.07-11.63,18.69-14.73,25.62-15.97-17.91-6.43-33.74,2.08-40.92,11.15-.92,1.24-1.75,2.55-2.52,3.9-3.24,5.71-5.09,12.3-5.09,19.33,0,10.28,3.96,19.64,10.43,26.64,2.87,3.11,6.24,5.75,9.98,7.8,9.81,4.84,21.33,4.48,29.49,1.07-8.82-.28-19.26-4.02-25.02-11.14.5-4.7,6.8-11.3,11-14.03,6.39-4.16,15.33-1.53,18.95.73,5.76,3.59,4.46,8.91,4.46,8.91,0,0,2.95-1.59,4.56-2.83,1.61-1.24.08-6.14-.79-7.63h-.01ZM94.91,69.55l-1.17.54-5.11-7.7,6.28,3.79v3.37Z"/>
  <path class="st0" d="M75.71,24.08c-12.09,0-22.86,5.61-29.87,14.37,0,.06,0,.11.02.17,25.12-21.08,46.66-3.37,46.66-3.37,0,0-.92-1.04-2.95-3.56,8.24,1.48,13.69,4.74,17.33,8.52-6.93-9.76-18.32-16.13-31.2-16.13h.01Z"/>
  <path class="st0" d="M75.71,110.5c-12.09,0-22.86-5.61-29.87-14.37,0-.06,0-.11.02-.17,25.12,21.08,46.66,3.37,46.66,3.37,0,0-.92,1.04-2.95,3.56,8.24-1.48,13.69-4.74,17.33-8.52-6.93,9.76-18.32,16.13-31.2,16.13h.01Z"/>
</svg>